<?xml version="1.0" encoding="UTF-8"?>
<svg viewBox="0 0 461.96252 450.7543" xmlns="http://www.w3.org/2000/svg">
 <defs>
  <filter id="a">
   <feGaussianBlur in="SourceGraphic" result="result0" stdDeviation="6"/>
   <feDiffuseLighting result="result5" surfaceScale="4">
    <feDistantLight azimuth="235" elevation="45"/>
   </feDiffuseLighting>
   <feComposite in="result5" in2="SourceGraphic" k1="1.4" operator="arithmetic" result="fbSourceGraphic"/>
   <feGaussianBlur in="fbSourceGraphic" result="result0" stdDeviation="6"/>
   <feSpecularLighting in="result0" result="result1" specularExponent="25" surfaceScale="4">
    <feDistantLight azimuth="235" elevation="45"/>
   </feSpecularLighting>
   <feComposite in="fbSourceGraphic" in2="result1" k2="1" k3="1" operator="arithmetic" result="result4"/>
   <feComposite in="result4" in2="SourceGraphic" operator="in" result="result2"/>
  </filter>
 </defs>
 <g transform="translate(-78.068 10.129)" fill="none" stroke-linecap="round" stroke-linejoin="round" stroke-width="24">
  <path d="m128.92 270.44s-16.312-241.96 181.08-241.96 179.08 241.96 179.08 241.96" stroke="#806600"/>
  <path d="m128.92 270.44s-16.312-241.96 181.08-241.96 179.08 241.96 179.08 241.96" filter="url(#a)" opacity=".5" stroke="#000"/>
 </g>
 <g transform="translate(-78.068 10.129)">
  <path d="m113.14 234.6 388.72 0.5601-57.131 194.92-269.97 0.56011z" fill="#504416"/>
 </g>
 <g transform="translate(-78.068 10.129)" fill="none" stroke="#806600" stroke-linecap="round" stroke-linejoin="round" stroke-width="16">
  <path d="m310.27 221.68-0.56011 203.66"/>
  <path d="m110.83 222.08 57.199 203.98"/>
  <path d="m212.51 221.44 27.199 205.1"/>
  <path d="m507.47 218.72-56.079 206.78"/>
  <path d="m409.15 220.32-28.878 207.16"/>
 </g>
 <g transform="translate(-78.068 10.129)" fill="none" stroke-linecap="round" stroke-linejoin="round">
  <g transform="matrix(.70895 0 0 1 90.142 174)" stroke="#d4aa00" stroke-width="11.877">
   <path d="m203.71 250.68s37.038 10 56 10 56-10 56-10"/>
   <path d="m303.71 250.68s37.038 10 56 10 56-10 56-10"/>
   <path d="m403.71 250.68s37.038 10 56 10 56-10 56-10"/>
   <path d="m103.71 250.68s37.038 10 56 10 56-10 56-10"/>
  </g>
  <g transform="matrix(.74688 0 0 .74795 78.269 239.94)" stroke="#a80" stroke-width="13.379">
   <path d="m255.34 238.68s36.151 10 54.659 10 54.659-10 54.659-10"/>
   <path d="m355.34 238.68s36.151 10 54.659 10 54.659-10 54.659-10"/>
   <path d="m171.34 238.68s36.151 10 54.659 10 54.659-10 54.659-10"/>
   <path d="m107.77 238.68s23.845 10 36.441 10 36.441-10 36.441-10"/>
   <path d="m510.65 238.68s-23.845 10-36.441 10-36.441-10-36.441-10"/>
  </g>
  <g transform="matrix(.74579 0 0 1 78.732 158)" stroke="#d4aa00" stroke-width="11.58">
   <path d="m203.71 250.68s37.038 10 56 10 56-10 56-10"/>
   <path d="m303.71 250.68s37.038 10 56 10 56-10 56-10"/>
   <path d="m403.71 250.68s37.038 10 56 10 56-10 56-10"/>
   <path d="m103.71 250.68s37.038 10 56 10 56-10 56-10"/>
  </g>
  <g transform="matrix(.76659 0 0 1 72.174 160)" stroke="#a80" stroke-width="11.421">
   <path d="m255.34 238.68s36.151 10 54.659 10 54.659-10 54.659-10"/>
   <path d="m355.34 238.68s36.151 10 54.659 10 54.659-10 54.659-10"/>
   <path d="m171.34 238.68s36.151 10 54.659 10 54.659-10 54.659-10"/>
   <path d="m107.77 238.68s23.845 10 36.441 10 36.441-10 36.441-10"/>
   <path d="m510.65 238.68s-23.845 10-36.441 10-36.441-10-36.441-10"/>
  </g>
  <g transform="matrix(.7669 0 0 1 72.194 138)" stroke="#d4aa00" stroke-width="11.419">
   <path d="m203.71 250.68s37.038 10 56 10 56-10 56-10"/>
   <path d="m303.71 250.68s37.038 10 56 10 56-10 56-10"/>
   <path d="m403.71 250.68s37.038 10 56 10 56-10 56-10"/>
   <path d="m103.71 250.68s37.038 10 56 10 56-10 56-10"/>
  </g>
  <g transform="matrix(.81238 0 0 1 58.015 136)" stroke="#a80" stroke-width="11.095">
   <path d="m255.34 238.68s36.151 10 54.659 10 54.659-10 54.659-10"/>
   <path d="m355.34 238.68s36.151 10 54.659 10 54.659-10 54.659-10"/>
   <path d="m171.34 238.68s36.151 10 54.659 10 54.659-10 54.659-10"/>
   <path d="m107.77 238.68s23.845 10 36.441 10 36.441-10 36.441-10"/>
   <path d="m510.65 238.68s-23.845 10-36.441 10-36.441-10-36.441-10"/>
  </g>
  <g transform="matrix(.80508 0 0 1 60.37 112)" stroke="#d4aa00" stroke-width="11.145">
   <path d="m203.71 250.68s37.038 10 56 10 56-10 56-10"/>
   <path d="m303.71 250.68s37.038 10 56 10 56-10 56-10"/>
   <path d="m403.71 250.68s37.038 10 56 10 56-10 56-10"/>
   <path d="m103.71 250.68s37.038 10 56 10 56-10 56-10"/>
  </g>
  <g transform="matrix(.84293 0 0 1 48.569 110)" stroke="#a80" stroke-width="10.892">
   <path d="m255.34 238.68s36.151 10 54.659 10 54.659-10 54.659-10"/>
   <path d="m355.34 238.68s36.151 10 54.659 10 54.659-10 54.659-10"/>
   <path d="m171.34 238.68s36.151 10 54.659 10 54.659-10 54.659-10"/>
   <path d="m107.77 238.68s23.845 10 36.441 10 36.441-10 36.441-10"/>
   <path d="m510.65 238.68s-23.845 10-36.441 10-36.441-10-36.441-10"/>
  </g>
  <g transform="matrix(.84084 0 0 1 49.294 86)" stroke="#d4aa00" stroke-width="10.905">
   <path d="m203.71 250.68s37.038 10 56 10 56-10 56-10"/>
   <path d="m303.71 250.68s37.038 10 56 10 56-10 56-10"/>
   <path d="m403.71 250.68s37.038 10 56 10 56-10 56-10"/>
   <path d="m103.71 250.68s37.038 10 56 10 56-10 56-10"/>
  </g>
  <g transform="matrix(.87352 0 0 1 39.11 84)" stroke="#a80" stroke-width="10.7">
   <path d="m255.34 238.68s36.151 10 54.659 10 54.659-10 54.659-10"/>
   <path d="m355.34 238.68s36.151 10 54.659 10 54.659-10 54.659-10"/>
   <path d="m171.34 238.68s36.151 10 54.659 10 54.659-10 54.659-10"/>
   <path d="m107.77 238.68s23.845 10 36.441 10 36.441-10 36.441-10"/>
   <path d="m510.65 238.68s-23.845 10-36.441 10-36.441-10-36.441-10"/>
  </g>
  <g transform="matrix(.88056 0 0 1 36.993 60)" stroke="#d4aa00" stroke-width="10.657">
   <path d="m203.71 250.68s37.038 10 56 10 56-10 56-10"/>
   <path d="m303.71 250.68s37.038 10 56 10 56-10 56-10"/>
   <path d="m403.71 250.68s37.038 10 56 10 56-10 56-10"/>
   <path d="m103.71 250.68s37.038 10 56 10 56-10 56-10"/>
  </g>
  <g transform="matrix(.90797 0 0 1 28.458 56)" stroke="#a80" stroke-width="10.495">
   <path d="m255.34 238.68s36.151 10 54.659 10 54.659-10 54.659-10"/>
   <path d="m355.34 238.68s36.151 10 54.659 10 54.659-10 54.659-10"/>
   <path d="m171.34 238.68s36.151 10 54.659 10 54.659-10 54.659-10"/>
   <path d="m107.77 238.68s23.845 10 36.441 10 36.441-10 36.441-10"/>
   <path d="m510.65 238.68s-23.845 10-36.441 10-36.441-10-36.441-10"/>
  </g>
  <g transform="matrix(.9124 0 0 1 27.131 32)" stroke="#d4aa00" stroke-width="10.469">
   <path d="m203.71 250.68s37.038 10 56 10 56-10 56-10"/>
   <path d="m303.71 250.68s37.038 10 56 10 56-10 56-10"/>
   <path d="m403.71 250.68s37.038 10 56 10 56-10 56-10"/>
   <path d="m103.71 250.68s37.038 10 56 10 56-10 56-10"/>
  </g>
  <g transform="matrix(.95779 0 0 1 13.051 28)" stroke="#a80" stroke-width="10.218">
   <path d="m255.34 238.68s36.151 10 54.659 10 54.659-10 54.659-10"/>
   <path d="m355.34 238.68s36.151 10 54.659 10 54.659-10 54.659-10"/>
   <path d="m171.34 238.68s36.151 10 54.659 10 54.659-10 54.659-10"/>
   <path d="m107.77 238.68s23.845 10 36.441 10 36.441-10 36.441-10"/>
   <path d="m510.65 238.68s-23.845 10-36.441 10-36.441-10-36.441-10"/>
  </g>
  <g transform="matrix(.95222 0 0 1 14.799 4)" stroke="#d4aa00" stroke-width="10.248">
   <path d="m203.71 250.68s37.038 10 56 10 56-10 56-10"/>
   <path d="m303.71 250.68s37.038 10 56 10 56-10 56-10"/>
   <path d="m403.71 250.68s37.038 10 56 10 56-10 56-10"/>
   <path d="m103.71 250.68s37.038 10 56 10 56-10 56-10"/>
  </g>
  <g stroke="#a80" stroke-width="10">
   <path d="m255.34 238.68s36.151 10 54.659 10 54.659-10 54.659-10"/>
   <path d="m355.34 238.68s36.151 10 54.659 10 54.659-10 54.659-10"/>
   <path d="m171.34 238.68s36.151 10 54.659 10 54.659-10 54.659-10"/>
   <path d="m107.77 238.68s23.845 10 36.441 10 36.441-10 36.441-10"/>
   <path d="m510.65 238.68s-23.845 10-36.441 10-36.441-10-36.441-10"/>
  </g>
  <g transform="matrix(.95212 0 0 -.68063 14.828 400.67)" stroke="#a80" stroke-width="12.422">
   <path d="m203.71 250.68s37.038 10 56 10 56-10 56-10"/>
   <path d="m303.71 250.68s37.038 10 56 10 56-10 56-10"/>
   <path d="m403.71 250.68s37.038 10 56 10 56-10 56-10"/>
   <path d="m103.71 250.68s37.038 10 56 10 56-10 56-10"/>
  </g>
  <g transform="matrix(.97606 0 0 1 7.4155 -24)" stroke="#d4aa00" stroke-width="10.122">
   <path d="m203.71 250.68s37.038 10 56 10 56-10 56-10"/>
   <path d="m303.71 250.68s37.038 10 56 10 56-10 56-10"/>
   <path d="m403.71 250.68s37.038 10 56 10 56-10 56-10"/>
   <path d="m103.71 250.68s37.038 10 56 10 56-10 56-10"/>
  </g>
 </g>
</svg>
